<?xml version="1.0" encoding="UTF-8"?>
<svg version="1.1" xmlns="http://www.w3.org/2000/svg" width="696" height="178">
<path d="M0 0 C1.40106239 -0.00855011 1.40106239 -0.00855011 2.83042908 -0.01727295 C4.81524517 -0.02674331 6.80007714 -0.03326497 8.78491211 -0.03710938 C11.80285815 -0.04675677 14.82010632 -0.07773634 17.83789062 -0.109375 C19.76692304 -0.11591073 21.69596033 -0.12115896 23.625 -0.125 C24.96921776 -0.1435202 24.96921776 -0.1435202 26.34059143 -0.16241455 C33.4070878 -0.13767038 38.99509986 0.96523317 44.65234375 5.515625 C48.40901966 10.26671512 49.02794534 14.88969781 49.05200195 20.83178711 C49.06629997 22.77927101 49.06629997 22.77927101 49.08088684 24.76609802 C49.08062539 26.17088854 49.07968821 27.57567908 49.078125 28.98046875 C49.08201672 30.43486146 49.08635236 31.88925305 49.09111023 33.34364319 C49.09855308 36.38562715 49.09829517 39.42749501 49.09301758 42.46948242 C49.08722389 46.35420155 49.10416049 50.23844374 49.12736225 54.12308407 C49.14214344 57.12495163 49.14296539 60.12670547 49.13985252 63.12860298 C49.14036348 64.56023669 49.14555866 65.99187714 49.15566444 67.42347527 C49.25373848 83.2579035 49.25373848 83.2579035 44.2421875 88.9453125 C40.19592732 91.94637504 38.1432799 93.3297374 33.14404297 93.31665039 C32.18319794 93.31657486 31.22235291 93.31649933 30.23239136 93.31642151 C29.19277252 93.31126022 28.15315369 93.30609894 27.08203125 93.30078125 C26.01945099 93.2993663 24.95687073 93.29795135 23.86209106 93.29649353 C20.45881366 93.29088334 17.05560137 93.27832909 13.65234375 93.265625 C11.34895928 93.26061131 9.04557378 93.25604818 6.7421875 93.25195312 C1.08721726 93.2409106 -4.56771484 93.22416252 -10.22265625 93.203125 C-10.3794083 85.34229602 -10.5274622 77.48134957 -10.66561985 69.62017441 C-10.73008105 65.96642076 -10.7970927 62.31275845 -10.87084961 58.65917969 C-11.17540723 43.4779146 -11.33867289 28.33481912 -10.8125 13.15625 C-10.77161758 11.95949646 -10.73073517 10.76274292 -10.68861389 9.52972412 C-10.29713675 -0.0710602 -9.58413369 0.0447443 0 0 Z M14.77734375 15.203125 C14.77734375 36.323125 14.77734375 57.443125 14.77734375 79.203125 C17.41734375 79.203125 20.05734375 79.203125 22.77734375 79.203125 C25.0276777 77.37561216 25.0276777 77.37561216 25.02458191 74.69824219 C25.02315689 73.64282227 25.02173187 72.58740234 25.02026367 71.5 C25.0233403 70.30536133 25.02641693 69.11072266 25.02958679 67.87988281 C25.02240128 66.58405273 25.01521576 65.28822266 25.0078125 63.953125 C25.00662062 62.61556035 25.00616755 61.27799485 25.00642395 59.94042969 C25.00485885 57.13601447 24.99656741 54.33172687 24.9831543 51.52734375 C24.96616438 47.92914391 24.96233995 44.33108438 24.96309948 40.73284912 C24.96282779 37.97052669 24.95734677 35.20823505 24.95009804 32.44592285 C24.94535961 30.47274145 24.94363483 28.49955355 24.94194031 26.52636719 C24.93556046 25.33172852 24.9291806 24.13708984 24.92260742 22.90625 C24.91879562 21.85083008 24.91498383 20.79541016 24.91105652 19.70800781 C24.94444692 17.20491436 24.94444692 17.20491436 23.77734375 15.203125 C20.80734375 15.203125 17.83734375 15.203125 14.77734375 15.203125 Z " fill="#010003" transform="translate(29.22265625,31.796875)"/>
<path d="M0 0 C1.40106239 -0.00855011 1.40106239 -0.00855011 2.83042908 -0.01727295 C4.81524517 -0.02674331 6.80007714 -0.03326497 8.78491211 -0.03710938 C11.80285815 -0.04675677 14.82010632 -0.07773634 17.83789062 -0.109375 C19.76692304 -0.11591073 21.69596033 -0.12115896 23.625 -0.125 C24.96921776 -0.1435202 24.96921776 -0.1435202 26.34059143 -0.16241455 C33.4070878 -0.13767038 38.99509986 0.96523317 44.65234375 5.515625 C48.40901966 10.26671512 49.02794534 14.88969781 49.05200195 20.83178711 C49.06629997 22.77927101 49.06629997 22.77927101 49.08088684 24.76609802 C49.08062539 26.17088854 49.07968821 27.57567908 49.078125 28.98046875 C49.08201672 30.43486146 49.08635236 31.88925305 49.09111023 33.34364319 C49.09855308 36.38562715 49.09829517 39.42749501 49.09301758 42.46948242 C49.08722389 46.35420155 49.10416049 50.23844374 49.12736225 54.12308407 C49.14214344 57.12495163 49.14296539 60.12670547 49.13985252 63.12860298 C49.14036348 64.56023669 49.14555866 65.99187714 49.15566444 67.42347527 C49.25373848 83.2579035 49.25373848 83.2579035 44.2421875 88.9453125 C40.19592732 91.94637504 38.1432799 93.3297374 33.14404297 93.31665039 C32.18319794 93.31657486 31.22235291 93.31649933 30.23239136 93.31642151 C29.19277252 93.31126022 28.15315369 93.30609894 27.08203125 93.30078125 C26.01945099 93.2993663 24.95687073 93.29795135 23.86209106 93.29649353 C20.45881366 93.29088334 17.05560137 93.27832909 13.65234375 93.265625 C11.34895928 93.26061131 9.04557378 93.25604818 6.7421875 93.25195312 C1.08721726 93.2409106 -4.56771484 93.22416252 -10.22265625 93.203125 C-10.24577815 81.22508941 -10.26357055 69.24705909 -10.27446842 57.26900578 C-10.27969759 51.70773089 -10.28679583 46.14647121 -10.2980957 40.58520508 C-10.3089234 35.22305081 -10.31493283 29.86091122 -10.31753349 24.49874687 C-10.31938796 22.44812222 -10.32300897 20.3974984 -10.32838631 18.34687996 C-10.33559518 15.48522297 -10.33664726 12.62362743 -10.33618164 9.76196289 C-10.33977692 8.90529022 -10.34337219 8.04861755 -10.34707642 7.16598511 C-10.3319828 -1.34863833 -7.65353836 0.03573116 0 0 Z M14.77734375 15.203125 C14.77734375 36.323125 14.77734375 57.443125 14.77734375 79.203125 C17.41734375 79.203125 20.05734375 79.203125 22.77734375 79.203125 C25.0276777 77.37561216 25.0276777 77.37561216 25.02458191 74.69824219 C25.02315689 73.64282227 25.02173187 72.58740234 25.02026367 71.5 C25.0233403 70.30536133 25.02641693 69.11072266 25.02958679 67.87988281 C25.02240128 66.58405273 25.01521576 65.28822266 25.0078125 63.953125 C25.00662062 62.61556035 25.00616755 61.27799485 25.00642395 59.94042969 C25.00485885 57.13601447 24.99656741 54.33172687 24.9831543 51.52734375 C24.96616438 47.92914391 24.96233995 44.33108438 24.96309948 40.73284912 C24.96282779 37.97052669 24.95734677 35.20823505 24.95009804 32.44592285 C24.94535961 30.47274145 24.94363483 28.49955355 24.94194031 26.52636719 C24.93556046 25.33172852 24.9291806 24.13708984 24.92260742 22.90625 C24.91879562 21.85083008 24.91498383 20.79541016 24.91105652 19.70800781 C24.94444692 17.20491436 24.94444692 17.20491436 23.77734375 15.203125 C20.80734375 15.203125 17.83734375 15.203125 14.77734375 15.203125 Z " fill="#080402" transform="translate(392.22265625,31.796875)"/>
<path d="M0 0 C8.46277527 1.471787 17.16019661 1 25.75 1 C25.75 31.69 25.75 62.38 25.75 94 C18.16 94 10.57 94 2.75 94 C2.75 86.74 2.75 79.48 2.75 72 C0.77 72.495 0.77 72.495 -1.25 73 C-9.07658046 73.50120959 -16.25574102 73.81505035 -23.25 70 C-26.69316942 66.83366832 -29.06920656 63.59045848 -29.40390015 58.7948761 C-29.41676056 57.93742294 -29.42962097 57.07996979 -29.44287109 56.1965332 C-29.45893402 55.22154373 -29.47499695 54.24655426 -29.49154663 53.24201965 C-29.53615376 48.77829781 -29.57707346 44.31472296 -29.60009766 39.85083008 C-29.61663693 37.5007943 -29.6438998 35.15080841 -29.68212891 32.80102539 C-29.73707166 29.40484636 -29.75880058 26.0098457 -29.7734375 22.61328125 C-29.79610687 21.57029373 -29.81877625 20.52730621 -29.84213257 19.45271301 C-29.82294431 12.78235243 -28.7657884 8.07508979 -24.25 3 C-17.04394155 -1.75293217 -8.20119725 -2.03586059 0 0 Z M-6.25 15 C-6.27464574 20.96313166 -6.292834 26.92623395 -6.30493164 32.8894043 C-6.30997278 34.91968298 -6.31680557 36.94995802 -6.32543945 38.98022461 C-6.33751467 41.89177347 -6.34323034 44.8032745 -6.34765625 47.71484375 C-6.35281754 48.6283812 -6.35797882 49.54191864 -6.36329651 50.48313904 C-6.36349168 52.65575427 -6.31211805 54.82827296 -6.25 57 C-5.07281015 58.40432936 -5.07281015 58.40432936 -1.75 58.125 C1.57281015 58.40432936 1.57281015 58.40432936 2.75 57 C2.8511692 53.90918535 2.88968558 50.84117445 2.8828125 47.75 C2.88376923 46.82155273 2.88472595 45.89310547 2.88571167 44.93652344 C2.88639355 42.96940035 2.88453872 41.00227504 2.88037109 39.03515625 C2.87502295 36.01296974 2.88031582 32.99093185 2.88671875 29.96875 C2.88605797 28.06249967 2.88477681 26.15624943 2.8828125 24.25 C2.88483673 23.33959961 2.88686096 22.42919922 2.88894653 21.49121094 C3.28891332 17.42336322 3.28891332 17.42336322 1.75 14 C-2.39276875 13.75266863 -2.39276875 13.75266863 -6.25 15 Z " fill="#030305" transform="translate(185.25,54)"/>
<path d="M0 0 C8.46277527 1.471787 17.16019661 1 25.75 1 C25.75 24.1 25.75 47.2 25.75 71 C18.82 71 11.89 71 4.75 71 C1.78 71.99 1.78 71.99 -1.25 73 C-9.0160358 73.69371782 -16.3169386 73.78166985 -23.25 70 C-26.69316942 66.83366832 -29.06920656 63.59045848 -29.40390015 58.7948761 C-29.41676056 57.93742294 -29.42962097 57.07996979 -29.44287109 56.1965332 C-29.45893402 55.22154373 -29.47499695 54.24655426 -29.49154663 53.24201965 C-29.53615376 48.77829781 -29.57707346 44.31472296 -29.60009766 39.85083008 C-29.61663693 37.5007943 -29.6438998 35.15080841 -29.68212891 32.80102539 C-29.73707166 29.40484636 -29.75880058 26.0098457 -29.7734375 22.61328125 C-29.79610687 21.57029373 -29.81877625 20.52730621 -29.84213257 19.45271301 C-29.82294431 12.78235243 -28.7657884 8.07508979 -24.25 3 C-17.04394155 -1.75293217 -8.20119725 -2.03586059 0 0 Z M-6.25 15 C-6.27464574 20.96313166 -6.292834 26.92623395 -6.30493164 32.8894043 C-6.30997278 34.91968298 -6.31680557 36.94995802 -6.32543945 38.98022461 C-6.33751467 41.89177347 -6.34323034 44.8032745 -6.34765625 47.71484375 C-6.35281754 48.6283812 -6.35797882 49.54191864 -6.36329651 50.48313904 C-6.36349168 52.65575427 -6.31211805 54.82827296 -6.25 57 C-5.07281015 58.40432936 -5.07281015 58.40432936 -1.75 58.125 C1.57281015 58.40432936 1.57281015 58.40432936 2.75 57 C2.8511692 53.90918535 2.88968558 50.84117445 2.8828125 47.75 C2.88376923 46.82155273 2.88472595 45.89310547 2.88571167 44.93652344 C2.88639355 42.96940035 2.88453872 41.00227504 2.88037109 39.03515625 C2.87502295 36.01296974 2.88031582 32.99093185 2.88671875 29.96875 C2.88605797 28.06249967 2.88477681 26.15624943 2.8828125 24.25 C2.88483673 23.33959961 2.88686096 22.42919922 2.88894653 21.49121094 C3.28891332 17.42336322 3.28891332 17.42336322 1.75 14 C-2.39276875 13.75266863 -2.39276875 13.75266863 -6.25 15 Z " fill="#040304" transform="translate(119.25,54)"/>
<path d="M0 0 C8.46277527 1.471787 17.16019661 1 25.75 1 C25.75 24.1 25.75 47.2 25.75 71 C18.82 71 11.89 71 4.75 71 C1.78 71.99 1.78 71.99 -1.25 73 C-9.0160358 73.69371782 -16.3169386 73.78166985 -23.25 70 C-26.69316942 66.83366832 -29.06920656 63.59045848 -29.40390015 58.7948761 C-29.41676056 57.93742294 -29.42962097 57.07996979 -29.44287109 56.1965332 C-29.45893402 55.22154373 -29.47499695 54.24655426 -29.49154663 53.24201965 C-29.53615376 48.77829781 -29.57707346 44.31472296 -29.60009766 39.85083008 C-29.61663693 37.5007943 -29.6438998 35.15080841 -29.68212891 32.80102539 C-29.73707166 29.40484636 -29.75880058 26.0098457 -29.7734375 22.61328125 C-29.79610687 21.57029373 -29.81877625 20.52730621 -29.84213257 19.45271301 C-29.82294431 12.78235243 -28.7657884 8.07508979 -24.25 3 C-17.04394155 -1.75293217 -8.20119725 -2.03586059 0 0 Z M-6.25 15 C-6.27464574 20.96313166 -6.292834 26.92623395 -6.30493164 32.8894043 C-6.30997278 34.91968298 -6.31680557 36.94995802 -6.32543945 38.98022461 C-6.33751467 41.89177347 -6.34323034 44.8032745 -6.34765625 47.71484375 C-6.35281754 48.6283812 -6.35797882 49.54191864 -6.36329651 50.48313904 C-6.36349168 52.65575427 -6.31211805 54.82827296 -6.25 57 C-5.07281015 58.40432936 -5.07281015 58.40432936 -1.75 58.125 C1.57281015 58.40432936 1.57281015 58.40432936 2.75 57 C2.8511692 53.90918535 2.88968558 50.84117445 2.8828125 47.75 C2.88376923 46.82155273 2.88472595 45.89310547 2.88571167 44.93652344 C2.88639355 42.96940035 2.88453872 41.00227504 2.88037109 39.03515625 C2.87502295 36.01296974 2.88031582 32.99093185 2.88671875 29.96875 C2.88605797 28.06249967 2.88477681 26.15624943 2.8828125 24.25 C2.88483673 23.33959961 2.88686096 22.42919922 2.88894653 21.49121094 C3.28891332 17.42336322 3.28891332 17.42336322 1.75 14 C-2.39276875 13.75266863 -2.39276875 13.75266863 -6.25 15 Z " fill="#070608" transform="translate(590.25,54)"/>
<path d="M0 0 C8.46277527 1.471787 17.16019661 1 25.75 1 C25.75 24.1 25.75 47.2 25.75 71 C18.82 71 11.89 71 4.75 71 C1.78 71.99 1.78 71.99 -1.25 73 C-9.0160358 73.69371782 -16.3169386 73.78166985 -23.25 70 C-26.69316942 66.83366832 -29.06920656 63.59045848 -29.40390015 58.7948761 C-29.41676056 57.93742294 -29.42962097 57.07996979 -29.44287109 56.1965332 C-29.45893402 55.22154373 -29.47499695 54.24655426 -29.49154663 53.24201965 C-29.53615376 48.77829781 -29.57707346 44.31472296 -29.60009766 39.85083008 C-29.61663693 37.5007943 -29.6438998 35.15080841 -29.68212891 32.80102539 C-29.73707166 29.40484636 -29.75880058 26.0098457 -29.7734375 22.61328125 C-29.79610687 21.57029373 -29.81877625 20.52730621 -29.84213257 19.45271301 C-29.82294431 12.78235243 -28.7657884 8.07508979 -24.25 3 C-17.04394155 -1.75293217 -8.20119725 -2.03586059 0 0 Z M-6.25 15 C-6.27464574 20.96313166 -6.292834 26.92623395 -6.30493164 32.8894043 C-6.30997278 34.91968298 -6.31680557 36.94995802 -6.32543945 38.98022461 C-6.33751467 41.89177347 -6.34323034 44.8032745 -6.34765625 47.71484375 C-6.35281754 48.6283812 -6.35797882 49.54191864 -6.36329651 50.48313904 C-6.36349168 52.65575427 -6.31211805 54.82827296 -6.25 57 C-5.07281015 58.40432936 -5.07281015 58.40432936 -1.75 58.125 C1.57281015 58.40432936 1.57281015 58.40432936 2.75 57 C2.8511692 53.90918535 2.88968558 50.84117445 2.8828125 47.75 C2.88376923 46.82155273 2.88472595 45.89310547 2.88571167 44.93652344 C2.88639355 42.96940035 2.88453872 41.00227504 2.88037109 39.03515625 C2.87502295 36.01296974 2.88031582 32.99093185 2.88671875 29.96875 C2.88605797 28.06249967 2.88477681 26.15624943 2.8828125 24.25 C2.88483673 23.33959961 2.88686096 22.42919922 2.88894653 21.49121094 C3.28891332 17.42336322 3.28891332 17.42336322 1.75 14 C-2.39276875 13.75266863 -2.39276875 13.75266863 -6.25 15 Z " fill="#060506" transform="translate(482.25,54)"/>
<path d="M0 0 C0.89912109 -0.01224609 1.79824219 -0.02449219 2.72460938 -0.03710938 C9.67184933 -0.05217931 16.51522838 0.25655206 22.5625 3.9375 C27.08308654 8.72400339 28.06067307 13.08487274 27.98046875 19.5546875 C27.96922974 21.42036377 27.96922974 21.42036377 27.95776367 23.32373047 C27.93045166 24.88752441 27.90313965 26.45131836 27.875 28.0625 C27.813125 33.05375 27.75125 38.045 27.6875 43.1875 C17.1275 43.1875 6.5675 43.1875 -4.3125 43.1875 C-3.9825 48.1375 -3.6525 53.0875 -3.3125 58.1875 C-1.0025 58.1875 1.3075 58.1875 3.6875 58.1875 C3.77837891 57.23037109 3.77837891 57.23037109 3.87109375 56.25390625 C3.95488281 55.42761719 4.03867187 54.60132813 4.125 53.75 C4.20621094 52.92628906 4.28742188 52.10257813 4.37109375 51.25390625 C4.6875 49.1875 4.6875 49.1875 5.6875 48.1875 C7.32222882 48.10049658 8.96064055 48.08048937 10.59765625 48.08984375 C12.08168945 48.09467773 12.08168945 48.09467773 13.59570312 48.09960938 C14.63662109 48.10798828 15.67753906 48.11636719 16.75 48.125 C18.31717773 48.13176758 18.31717773 48.13176758 19.91601562 48.13867188 C22.5065666 48.15050087 25.09700559 48.16698311 27.6875 48.1875 C27.76915496 50.39520805 27.82698488 52.60380425 27.875 54.8125 C27.92720703 56.65714844 27.92720703 56.65714844 27.98046875 58.5390625 C27.58877926 63.41690232 25.90975087 66.6160346 22.9375 70.4375 C16.49122408 75.45127016 7.99907367 74.52093213 0.25 74.5 C-0.93916016 74.51611328 -2.12832031 74.53222656 -3.35351562 74.54882812 C-17.63029822 74.55675527 -17.63029822 74.55675527 -22.86083984 69.77075195 C-26.37005307 65.77123565 -27.42745473 62.57901702 -27.50537109 57.3840332 C-27.52143402 56.40904373 -27.53749695 55.43405426 -27.55404663 54.42951965 C-27.59865376 49.96579781 -27.63957346 45.50222296 -27.66259766 41.03833008 C-27.67913693 38.6882943 -27.7063998 36.33830841 -27.74462891 33.98852539 C-27.79957166 30.59234636 -27.82130058 27.1973457 -27.8359375 23.80078125 C-27.85860687 22.75779373 -27.88127625 21.71480621 -27.90463257 20.64021301 C-27.88544431 13.96985243 -26.8282884 9.26258979 -22.3125 4.1875 C-15.50203168 -0.30451102 -7.87769541 0.00557516 0 0 Z M-4.3125 16.1875 C-4.38508946 18.37389453 -4.39623783 20.56250389 -4.375 22.75 C-4.36597656 23.94753906 -4.35695313 25.14507812 -4.34765625 26.37890625 C-4.33605469 27.30574219 -4.32445312 28.23257813 -4.3125 29.1875 C-1.3425 29.1875 1.6275 29.1875 4.6875 29.1875 C4.71435938 27.04173363 4.73383088 24.89587355 4.75 22.75 C4.76160156 21.55503906 4.77320313 20.36007813 4.78515625 19.12890625 C5.02651792 16.29876659 5.02651792 16.29876659 3.6875 15.1875 C-0.6287525 14.64483887 -0.6287525 14.64483887 -4.3125 16.1875 Z " fill="#020102" transform="translate(315.3125,52.8125)"/>
<path d="M0 0 C7.59 0 15.18 0 23 0 C23.33 18.48 23.66 36.96 24 56 C26.31 56 28.62 56 31 56 C31.33 37.52 31.66 19.04 32 0 C39.59 0 47.18 0 55 0 C55 23.1 55 46.2 55 70 C47.41 70.33 39.82 70.66 32 71 C30.02 71.495 30.02 71.495 28 72 C20.17341954 72.50120959 12.99425898 72.81505035 6 69 C2.38665107 65.67717159 0.10858328 62.38250823 -0.12025452 57.36140442 C-0.11803391 56.3021727 -0.11581329 55.24294098 -0.11352539 54.15161133 C-0.11344986 52.9505928 -0.11337433 51.74957428 -0.11329651 50.51216125 C-0.10813522 49.21521835 -0.10297394 47.91827545 -0.09765625 46.58203125 C-0.09579077 45.24110466 -0.09436748 43.90017739 -0.09336853 42.55924988 C-0.08955356 39.03290927 -0.07973199 35.50660996 -0.06866455 31.98028564 C-0.0584285 28.38074299 -0.05386621 24.78119365 -0.04882812 21.18164062 C-0.0381088 14.12107526 -0.02052025 7.06054467 0 0 Z " fill="#010203" transform="translate(222,55)"/>
<path d="M0 0 C7.59 0 15.18 0 23 0 C23 4.95 23 9.9 23 15 C26.96 15 30.92 15 35 15 C35 19.95 35 24.9 35 30 C31.04 30 27.08 30 23 30 C23.11806197 35.66014162 23.24229672 41.32010083 23.37231445 46.97998047 C23.41569001 48.90637504 23.45736314 50.83280871 23.49731445 52.75927734 C23.55495362 55.52453408 23.61866616 58.2895935 23.68359375 61.0546875 C23.70030624 61.9193161 23.71701874 62.7839447 23.73423767 63.67477417 C23.72159896 67.97395852 23.72159896 67.97395852 25 72 C27.35599235 72.46751788 27.35599235 72.46751788 30.0625 72.625 C31.691875 72.74875 33.32125 72.8725 35 73 C35 77.62 35 82.24 35 87 C31.66616498 87.08153401 28.33435765 87.14075667 25 87.1875 C24.06542969 87.21263672 23.13085938 87.23777344 22.16796875 87.26367188 C15.80931374 87.33037105 9.41478312 87.10556416 4.44165039 82.58276367 C0.26317295 77.7873894 -0.14522621 73.86321376 -0.11352539 67.7746582 C-0.11367142 67.04270233 -0.11381744 66.31074646 -0.1139679 65.55661011 C-0.1132714 63.13797031 -0.10549128 60.71940759 -0.09765625 58.30078125 C-0.09579114 56.62355084 -0.09436767 54.94631989 -0.09336853 53.26908875 C-0.0895507 48.85499568 -0.07972666 44.44093553 -0.06866455 40.02685547 C-0.05843467 35.52246547 -0.05386753 31.01807015 -0.04882812 26.51367188 C-0.03810375 17.67576446 -0.02051287 8.83789012 0 0 Z " fill="#070404" transform="translate(519,40)"/>
<path d="M0 0 C0.66 0 1.32 0 2 0 C5.58628078 5.16424432 6.12408145 9.20203778 6.16113281 15.40161133 C6.17074036 16.70008499 6.1803479 17.99855865 6.19024658 19.33638 C6.19509513 20.75159529 6.19937382 22.16681263 6.203125 23.58203125 C6.20888152 25.03928121 6.21463919 26.49653117 6.22039795 27.95378113 C6.23089175 31.00768383 6.2367449 34.06156033 6.24023438 37.11547852 C6.24571352 41.01591714 6.26973566 44.91600571 6.29820633 48.81633472 C6.31689228 51.82676687 6.32204148 54.83711571 6.32357025 57.84760094 C6.32658425 59.28482666 6.33457022 60.72205135 6.34775543 62.15921974 C6.4677068 76.2395209 6.4677068 76.2395209 3 82 C0.8125 83.9375 0.8125 83.9375 -1 85 C-0.41196203 81.97580475 0.22678118 78.98241547 1 76 C1.66 76 2.32 76 3 76 C3.02331745 68.75810811 3.04101293 61.51622451 3.05181217 54.27430248 C3.05699899 50.91047514 3.06401891 47.54667374 3.07543945 44.18286133 C3.08765644 40.30289034 3.0932629 36.42295556 3.09765625 32.54296875 C3.10281754 31.35293747 3.10797882 30.16290619 3.11329651 28.93681335 C3.24543339 15.68010782 3.24543339 15.68010782 0 3 C0 2.01 0 1.02 0 0 Z " fill="#040A2C" transform="translate(72,37)"/>
<path d="M0 0 C3.59059983 0.99738884 4.91172765 1.88720756 7.25 4.875 C9.86381214 9.54252168 10.12925936 13.06842572 10.16113281 18.40161133 C10.17074036 19.70008499 10.1803479 20.99855865 10.19024658 22.33638 C10.19509513 23.75159529 10.19937382 25.16681263 10.203125 26.58203125 C10.20888152 28.03928121 10.21463919 29.49653117 10.22039795 30.95378113 C10.23089175 34.00768383 10.2367449 37.06156033 10.24023438 40.11547852 C10.24571352 44.01591714 10.26973566 47.91600571 10.29820633 51.81633472 C10.31689228 54.82676687 10.32204148 57.83711571 10.32357025 60.84760094 C10.32658425 62.28482666 10.33457022 63.72205135 10.34775543 65.15921974 C10.46911318 79.40460699 10.46911318 79.40460699 7 85 C5.515 85.99 5.515 85.99 4 87 C4.875 82.125 4.875 82.125 6 81 C6.24744458 78.67316301 6.42306114 76.3776656 6.55078125 74.04296875 C6.59262039 73.29758347 6.63445953 72.55219818 6.67756653 71.78422546 C7.18130164 61.75756711 7.18603628 51.72186788 7.18530273 41.68481445 C7.18752118 38.27998921 7.20584158 34.87547274 7.22460938 31.47070312 C7.22753861 29.28906359 7.22952654 27.10742255 7.23046875 24.92578125 C7.23765427 23.91638992 7.24483978 22.9069986 7.25224304 21.86701965 C7.23578783 16.80891404 6.920497 12.75866521 5 8 C5 7.34 5 6.68 5 6 C4.01 5.67 3.02 5.34 2 5 C0.8125 2.4375 0.8125 2.4375 0 0 Z " fill="#090A25" transform="translate(431,34)"/>
<path d="M0 0 C6.27 0 12.54 0 19 0 C19 0.33 19 0.66 19 1 C13.39 1 7.78 1 2 1 C2.00523682 2.69116943 2.01047363 4.38233887 2.01586914 6.12475586 C2.03196803 11.70072196 2.04347285 17.27668473 2.05181217 22.85266781 C2.05703975 26.23471813 2.06413511 29.6167434 2.07543945 32.9987793 C2.08834267 36.88329777 2.09322924 40.76780597 2.09765625 44.65234375 C2.10281754 45.87211411 2.10797882 47.09188446 2.11329651 48.34861755 C2.11337204 49.46970413 2.11344757 50.59079071 2.11352539 51.74584961 C2.115746 52.73846298 2.11796661 53.73107635 2.12025452 54.75376892 C2 57 2 57 1 58 C-0.66429051 58.09823937 -2.33281931 58.12973631 -4 58.125 C-5.36125 58.12886719 -5.36125 58.12886719 -6.75 58.1328125 C-9 58 -9 58 -10 57 C-10.09365006 55.2507128 -10.11744438 53.49763746 -10.11352539 51.74584961 C-10.11344986 50.62476303 -10.11337433 49.50367645 -10.11329651 48.34861755 C-10.10813522 47.1288472 -10.10297394 45.90907684 -10.09765625 44.65234375 C-10.0962413 43.41078018 -10.09482635 42.16921661 -10.09336853 40.89002991 C-10.08870591 37.58394509 -10.07971497 34.27792854 -10.06866455 30.97186279 C-10.05844827 27.6003885 -10.05387045 24.22890717 -10.04882812 20.85742188 C-10.03777395 14.23826225 -10.02101736 7.61913507 -10 1 C-9.67 1 -9.34 1 -9 1 C-8.67 19.15 -8.34 37.3 -8 56 C-5.69 56 -3.38 56 -1 56 C-0.67 37.52 -0.34 19.04 0 0 Z " fill="#221C1F" transform="translate(254,55)"/>
<path d="M0 0 C0.66 0 1.32 0 2 0 C2 21.12 2 42.24 2 64 C1.01 64 0.02 64 -1 64 C-1.0231271 55.80309439 -1.04091696 47.60620232 -1.05181217 39.40927219 C-1.0570402 35.60348423 -1.06413638 31.79771852 -1.07543945 27.99194336 C-1.0862712 24.32207456 -1.09227744 20.65222722 -1.09487724 16.98234367 C-1.09673097 15.57925008 -1.1003506 14.17615771 -1.10573006 12.7730732 C-1.11294419 10.8143032 -1.11340809 8.8555118 -1.11352539 6.89672852 C-1.115746 5.77976089 -1.11796661 4.66279327 -1.12025452 3.51197815 C-1 1 -1 1 0 0 Z " fill="#020228" transform="translate(405,48)"/>
<path d="M0 0 C0.66 0 1.32 0 2 0 C2 30.36 2 60.72 2 92 C1.34 92 0.68 92 0 92 C-0.15675205 84.13917102 -0.30480595 76.27822457 -0.4429636 68.41704941 C-0.5074248 64.76329576 -0.57443645 61.10963345 -0.64819336 57.45605469 C-1.03349844 38.25678419 -0.93118315 19.18890591 0 0 Z " fill="#552A1A" transform="translate(19,33)"/>
<path d="M0 0 C0.99067744 2.97203231 1.14117688 4.97820987 1.17358398 8.08227539 C1.18707382 9.11667252 1.20056366 10.15106964 1.21446228 11.21681213 C1.22490067 12.33249069 1.23533905 13.44816925 1.24609375 14.59765625 C1.27901655 16.94857165 1.31222845 19.29948302 1.34570312 21.65039062 C1.39324048 25.36593995 1.43769967 29.08147112 1.47680664 32.79711914 C1.51636585 36.37663495 1.56793319 39.95582033 1.62109375 43.53515625 C1.6295079 44.65285904 1.63792206 45.77056183 1.64659119 46.9221344 C1.66323318 47.95337936 1.67987518 48.98462433 1.69702148 50.04711914 C1.70732895 50.95740372 1.71763641 51.86768829 1.72825623 52.80555725 C1.79733989 55.20723828 1.79733989 55.20723828 4 57 C3.625 59.125 3.625 59.125 3 61 C-0.1320492 58.07001849 -1.86782608 56.2063527 -2.13371277 51.76795959 C-2.13752457 50.89844162 -2.14133636 50.02892365 -2.14526367 49.13305664 C-2.15164352 48.1451564 -2.15802338 47.15725616 -2.16459656 46.13941956 C-2.16570938 45.07376266 -2.1668222 44.00810577 -2.16796875 42.91015625 C-2.17129715 41.81408554 -2.17462555 40.71801483 -2.17805481 39.58872986 C-2.18311981 37.26952535 -2.18546327 34.95031355 -2.18530273 32.63110352 C-2.18748915 29.08011901 -2.20564942 25.52944515 -2.22460938 21.97851562 C-2.22754336 19.72656356 -2.22952812 17.47461003 -2.23046875 15.22265625 C-2.23765427 14.15902359 -2.24483978 13.09539093 -2.25224304 11.99952698 C-2.24916641 11.00847458 -2.24608978 10.01742218 -2.24291992 8.99633789 C-2.24434494 8.12602432 -2.24576996 7.25571075 -2.24723816 6.35902405 C-1.98140473 3.82257311 -1.27693327 2.18834165 0 0 Z " fill="#3D2719" transform="translate(290,61)"/>
<path d="M0 0 C5.94 0 11.88 0 18 0 C18 0.33 18 0.66 18 1 C12.72 1 7.44 1 2 1 C2.33 20.14 2.66 39.28 3 59 C3.66 59.33 4.32 59.66 5 60 C4.67 61.98 4.34 63.96 4 66 C1.0813249 63.33512274 0.06403829 61.40511264 -0.12025452 57.36140442 C-0.11803391 56.3021727 -0.11581329 55.24294098 -0.11352539 54.15161133 C-0.11344986 52.9505928 -0.11337433 51.74957428 -0.11329651 50.51216125 C-0.10813522 49.21521835 -0.10297394 47.91827545 -0.09765625 46.58203125 C-0.09579077 45.24110466 -0.09436748 43.90017739 -0.09336853 42.55924988 C-0.08955356 39.03290927 -0.07973199 35.50660996 -0.06866455 31.98028564 C-0.0584285 28.38074299 -0.05386621 24.78119365 -0.04882812 21.18164062 C-0.0381088 14.12107526 -0.02052025 7.06054467 0 0 Z " fill="#3C2519" transform="translate(222,55)"/>
<path d="M0 0 C0.66 0.33 1.32 0.66 2 1 C1.79503906 1.60328125 1.59007812 2.2065625 1.37890625 2.828125 C1.10949219 3.62734375 0.84007812 4.4265625 0.5625 5.25 C0.29566406 6.03890625 0.02882812 6.8278125 -0.24609375 7.640625 C-1.39717721 11.24297946 -2.12517882 14.40383932 -2.12939453 18.19848633 C-2.13254669 19.01646194 -2.13569885 19.83443756 -2.13894653 20.67720032 C-2.1369223 21.55329453 -2.13489807 22.42938873 -2.1328125 23.33203125 C-2.13424759 24.69698982 -2.13424759 24.69698982 -2.13571167 26.08952332 C-2.13639156 28.01354034 -2.13455058 29.93755966 -2.13037109 31.86157227 C-2.12503871 34.79123155 -2.13031298 37.72073622 -2.13671875 40.65039062 C-2.13605757 42.52343784 -2.13477559 44.39648495 -2.1328125 46.26953125 C-2.13483673 47.13955276 -2.13686096 48.00957428 -2.13894653 48.90596008 C-2.12069386 53.69722728 -1.98113928 58.29977576 -1 63 C-0.34 63.33 0.32 63.66 1 64 C0.01 64 -0.98 64 -2 64 C-5.57647403 58.41324359 -5.46748637 53.26756882 -5.46875 46.7578125 C-5.48017029 45.13430374 -5.48017029 45.13430374 -5.49182129 43.47799683 C-5.50260341 41.1935252 -5.5054831 38.90900435 -5.50097656 36.62451172 C-5.50000512 33.1433625 -5.54163333 29.66442459 -5.5859375 26.18359375 C-5.59114564 23.9583379 -5.59383268 21.73307444 -5.59375 19.5078125 C-5.61014526 18.47423615 -5.62654053 17.44065979 -5.64343262 16.37576294 C-5.57905198 9.58813456 -4.25108389 5.33102558 0 0 Z " fill="#472C1B" transform="translate(161,57)"/>
<path d="M0 0 C0.99 0.33 1.98 0.66 3 1 C3 22.12 3 43.24 3 65 C2.01 65 1.02 65 0 65 C0 43.55 0 22.1 0 0 Z " fill="#3C2319" transform="translate(53,47)"/>
<path d="M0 0 C0.99 0 1.98 0 3 0 C3.03758423 1.8394519 3.03758423 1.8394519 3.07592773 3.71606445 C3.17003054 8.2615827 3.27024433 12.80694917 3.37231445 17.35229492 C3.41565241 19.32035779 3.45732832 21.28845798 3.49731445 23.2565918 C3.55504445 26.0839361 3.61873116 28.91109271 3.68359375 31.73828125 C3.70030624 32.61962234 3.71701874 33.50096344 3.73423767 34.40901184 C3.75418289 35.22963608 3.77412811 36.05026031 3.79467773 36.89575195 C3.81799416 37.97830009 3.81799416 37.97830009 3.84178162 39.0827179 C3.94195257 41.22108144 3.94195257 41.22108144 5 44 C3.35 43.34 1.7 42.68 0 42 C0 28.14 0 14.28 0 0 Z " fill="#081026" transform="translate(539,69)"/>
<path d="M0 0 C0.33 0 0.66 0 1 0 C1.77729372 4.92498726 2.21647957 9.77630248 2.38671875 14.76171875 C2.41224319 15.47479691 2.43776764 16.18787506 2.46406555 16.92256165 C2.51569988 18.41745895 2.56516687 19.91243257 2.61254883 21.4074707 C2.68765027 23.69207111 2.77825021 25.97574578 2.86914062 28.25976562 C2.91762063 29.71871861 2.96517894 31.17770258 3.01171875 32.63671875 C3.05772217 33.95373779 3.10372559 35.27075684 3.15112305 36.62768555 C3.00987025 39.77974517 2.69094593 41.39438163 1 44 C-1.64 44 -4.28 44 -7 44 C-7 43.67 -7 43.34 -7 43 C-4.03 42.505 -4.03 42.505 -1 42 C-0.67 28.14 -0.34 14.28 0 0 Z " fill="#291A12" transform="translate(122,69)"/>
<path d="M0 0 C2.029668 3.044502 2.24856301 3.60276328 2.22705078 7.01245117 C2.22689972 7.81305466 2.22674866 8.61365814 2.22659302 9.43852234 C2.21627045 10.29798965 2.20594788 11.15745697 2.1953125 12.04296875 C2.1924826 12.9265657 2.18965271 13.81016266 2.18673706 14.72053528 C2.17554097 17.54299454 2.15043751 20.36513662 2.125 23.1875 C2.11496946 25.10090688 2.10584374 27.01431873 2.09765625 28.92773438 C2.07560351 33.61861182 2.04107762 38.30925213 2 43 C-0.475 43.495 -0.475 43.495 -3 44 C-2.34 43.34 -1.68 42.68 -1 42 C-0.67087115 40.10388475 -0.67087115 40.10388475 -0.68115234 37.91748047 C-0.66128265 37.07675995 -0.64141296 36.23603943 -0.62094116 35.36984253 C-0.60938995 34.46146637 -0.59783875 33.55309021 -0.5859375 32.6171875 C-0.56657135 31.68778351 -0.5472052 30.75837952 -0.5272522 29.80081177 C-0.46736315 26.8256352 -0.4210339 23.85042012 -0.375 20.875 C-0.33682879 18.86066 -0.29777757 16.84633646 -0.2578125 14.83203125 C-0.161654 9.88815425 -0.0776576 4.94420083 0 0 Z " fill="#26150F" transform="translate(188,69)"/>
<path d="M0 0 C0.66 0 1.32 0 2 0 C2.33 14.19 2.66 28.38 3 43 C1.68 42.67 0.36 42.34 -1 42 C-0.67 28.14 -0.34 14.28 0 0 Z " fill="#0C1830" transform="translate(474,69)"/>
<path d="M0 0 C7.26 0 14.52 0 22 0 C22 5.28 22 10.56 22 16 C21.34 15.67 20.68 15.34 20 15 C19.55078125 13.109375 19.55078125 13.109375 19.3125 10.75 C19.22613281 9.98171875 19.13976562 9.2134375 19.05078125 8.421875 C19 6 19 6 20 1 C13.73 1 7.46 1 1 1 C1 8.26 1 15.52 1 23 C0.67 23 0.34 23 0 23 C0 15.41 0 7.82 0 0 Z " fill="#100707" transform="translate(520,40)"/>
<path d="M0 0 C0.99 0.66 1.98 1.32 3 2 C1.02 2.99 1.02 2.99 -1 4 C-1.33 22.81 -1.66 41.62 -2 61 C-2.33 61 -2.66 61 -3 61 C-3.06949335 53.48962286 -3.12280778 45.97927904 -3.15543652 38.46865368 C-3.17109635 34.98118424 -3.1923398 31.49393468 -3.22631836 28.0065918 C-3.2651328 23.99786257 -3.2797065 19.98936452 -3.29296875 15.98046875 C-3.30845261 14.72727341 -3.32393646 13.47407806 -3.33988953 12.1829071 C-3.34011612 11.02193008 -3.34034271 9.86095306 -3.34057617 8.66479492 C-3.34723801 7.64109299 -3.35389984 6.61739105 -3.36076355 5.56266785 C-2.95037913 2.64752037 -2.28869739 1.77365841 0 0 Z " fill="#00000E" transform="translate(406,45)"/>
<path d="M0 0 C0.33 0 0.66 0 1 0 C1.07433779 4.89295147 1.12869027 9.78557183 1.16479492 14.67895508 C1.17985114 16.34242481 1.20030063 18.00585505 1.22631836 19.66918945 C1.26284207 22.06471522 1.27975782 24.45971467 1.29296875 26.85546875 C1.30845261 27.5952446 1.32393646 28.33502045 1.33988953 29.09721375 C1.34134093 33.58319123 0.78478143 36.44084538 -2 40 C-2.99 40.495 -2.99 40.495 -4 41 C-3.125 36.125 -3.125 36.125 -2 35 C-1.7686976 32.41043944 -1.59653102 29.84125925 -1.46484375 27.24609375 C-1.42186661 26.47064713 -1.37888947 25.6952005 -1.33460999 24.89625549 C-1.19784452 22.4102206 -1.06760606 19.92389146 -0.9375 17.4375 C-0.84613159 15.75583604 -0.75434029 14.074195 -0.66210938 12.39257812 C-0.43649148 8.26196909 -0.21672815 4.13108463 0 0 Z " fill="#03061E" transform="translate(439,80)"/>
<path d="M0 0 C0.33 0 0.66 0 1 0 C1.00808685 0.56296783 1.01617371 1.12593567 1.02450562 1.70596313 C1.1107323 7.57877744 1.2102434 13.45126124 1.31738281 19.32373047 C1.3556058 21.51377806 1.39047022 23.703887 1.421875 25.89404297 C1.46767043 29.04677212 1.52564149 32.19908138 1.5859375 35.3515625 C1.59748871 36.32678864 1.60903992 37.30201477 1.62094116 38.30679321 C1.72765962 43.25072977 2.06566104 47.36437365 4 52 C3.01 52.495 3.01 52.495 2 53 C0.4353107 49.5253803 -0.24712736 46.83063503 -0.22705078 43.02612305 C-0.22689972 42.06550461 -0.22674866 41.10488617 -0.22659302 40.11515808 C-0.21627045 39.0910231 -0.20594788 38.06688812 -0.1953125 37.01171875 C-0.1924826 35.95338333 -0.18965271 34.89504791 -0.18673706 33.80464172 C-0.1755629 30.43214502 -0.15046307 27.05991613 -0.125 23.6875 C-0.11496664 21.3977903 -0.10584141 19.10807643 -0.09765625 16.81835938 C-0.0756326 11.21214857 -0.04218236 5.60609342 0 0 Z " fill="#180000" transform="translate(91,66)"/>
<path d="M0 0 C2.98992513 1.03100867 3.93871086 1.90005496 5.6184082 4.63916016 C7.17333133 8.42164324 7.34521523 11.07321228 7.29296875 15.1484375 C7.28872391 15.80582916 7.28447906 16.46322083 7.28010559 17.14053345 C7.26344977 19.21912391 7.2258262 21.29670774 7.1875 23.375 C7.17243605 24.79295464 7.15875065 26.21092464 7.14648438 27.62890625 C7.11359038 31.0862589 7.06190165 34.54303103 7 38 C6.67 38 6.34 38 6 38 C5.98541748 37.28457031 5.97083496 36.56914063 5.95581055 35.83203125 C5.88080787 32.55417564 5.78432045 29.27728083 5.6875 26 C5.66494141 24.87464844 5.64238281 23.74929687 5.61914062 22.58984375 C5.40849468 16.04066991 4.71099532 10.97525499 2 5 C1.4121875 3.515 1.4121875 3.515 0.8125 2 C0.544375 1.34 0.27625 0.68 0 0 Z " fill="#1A2A45" transform="translate(336,57)"/>
<path d="M0 0 C0.33 0 0.66 0 1 0 C1 5.61 1 11.22 1 17 C1.66 17.33 2.32 17.66 3 18 C3 18.99 3 19.98 3 21 C3.66 21.33 4.32 21.66 5 22 C6.05352843 24.30965848 7.05719096 26.6429774 8 29 C4.09652718 27.46649282 2.15806461 25.59677434 0 22 C-0.49205532 18.21723126 -0.37663489 14.49385245 -0.25 10.6875 C-0.23195313 9.66076172 -0.21390625 8.63402344 -0.1953125 7.57617188 C-0.14831063 5.04982115 -0.08262272 2.52539531 0 0 Z " fill="#23110B" transform="translate(520,96)"/>
<path d="M0 0 C0.66 0.33 1.32 0.66 2 1 C1.67 1.99 1.34 2.98 1 4 C0.34 4 -0.32 4 -1 4 C-1 5.32 -1 6.64 -1 8 C-3.5 9.75 -3.5 9.75 -6 11 C-5.63076923 4.6 -5.63076923 4.6 -2.4375 1.5625 C-1.633125 1.046875 -0.82875 0.53125 0 0 Z " fill="#20120F" transform="translate(98,55)"/>
<path d="M0 0 C0.66 0 1.32 0 2 0 C5.32306573 4.12817904 5.21637435 7.16799493 4.6875 12.3125 C4.56761719 13.56675781 4.44773437 14.82101563 4.32421875 16.11328125 C4.21722656 17.06589844 4.11023438 18.01851562 4 19 C3.67 19 3.34 19 3 19 C2.92652344 17.89591797 2.92652344 17.89591797 2.8515625 16.76953125 C2.77679688 15.79371094 2.70203125 14.81789063 2.625 13.8125 C2.55539063 12.84957031 2.48578125 11.88664062 2.4140625 10.89453125 C1.99682396 7.97779768 1.11984967 5.70857949 0 3 C0 2.01 0 1.02 0 0 Z " fill="#070B1F" transform="translate(72,37)"/>
<path d="M0 0 C0.66 0 1.32 0 2 0 C2 5.28 2 10.56 2 16 C1.34 15.67 0.68 15.34 0 15 C-1.2194696 9.96306036 -1.16321305 5.0405899 0 0 Z " fill="#101E3B" transform="translate(540,40)"/>
<path d="M0 0 C0.66 0 1.32 0 2 0 C2 4.62 2 9.24 2 14 C1.34 14 0.68 14 0 14 C-0.19532961 12.2300132 -0.38098882 10.45895721 -0.5625 8.6875 C-0.66691406 7.70136719 -0.77132812 6.71523437 -0.87890625 5.69921875 C-1 3 -1 3 0 0 Z " fill="#080B1E" transform="translate(552,113)"/>
<path d="M0 0 C0.66 0.33 1.32 0.66 2 1 C0.35 4.63 -1.3 8.26 -3 12 C-3.66 11.67 -4.32 11.34 -5 11 C-4.46884894 6.48521602 -2.63379708 3.65333143 0 0 Z " fill="#3B2014" transform="translate(458,57)"/>
<path d="M0 0 C0.33 0 0.66 0 1 0 C1.55353075 13.81776765 1.55353075 13.81776765 -2 19 C-2.33 18.34 -2.66 17.68 -3 17 C-2.71125 16.195625 -2.4225 15.39125 -2.125 14.5625 C-0.60768336 9.75766397 -0.33860725 5.00782295 0 0 Z " fill="#172549" transform="translate(342,102)"/>
<path d="M0 0 C0.66 0.33 1.32 0.66 2 1 C2 3.64 2 6.28 2 9 C0.68 7.68 -0.64 6.36 -2 5 C-1.34 3.35 -0.68 1.7 0 0 Z " fill="#30150D" transform="translate(564,113)"/>
<path d="M0 0 C0.66 0.33 1.32 0.66 2 1 C0.02 3.31 -1.96 5.62 -4 8 C-4.33 6.68 -4.66 5.36 -5 4 C-3.35 2.68 -1.7 1.36 0 0 Z " fill="#251710" transform="translate(296,55)"/>
<path d="M0 0 C1.60852372 2.68087287 2.07056307 4.52040267 2.5 7.6875 C2.665 8.780625 2.83 9.87375 3 11 C3.66 11.33 4.32 11.66 5 12 C4.01 12 3.02 12 2 12 C-0.60018816 8.09971775 -0.15085514 4.52565431 0 0 Z " fill="#2C150E" transform="translate(157,109)"/>
<path d="M0 0 C0.99 0 1.98 0 3 0 C4.32 2.31 5.64 4.62 7 7 C4.13302508 5.71480435 2.02392288 4.42870746 0 2 C0 1.34 0 0.68 0 0 Z " fill="#452C1D" transform="translate(455,118)"/>
<path d="" fill="#FFFFFF" transform="translate(0,0)"/>
<path d="" fill="#FFFFFF" transform="translate(0,0)"/>
<path d="" fill="#FFFFFF" transform="translate(0,0)"/>
<path d="" fill="#FFFFFF" transform="translate(0,0)"/>
<path d="" fill="#FFFFFF" transform="translate(0,0)"/>
<path d="" fill="#FFFFFF" transform="translate(0,0)"/>
<path d="" fill="#FFFFFF" transform="translate(0,0)"/>
<path d="" fill="#FFFFFF" transform="translate(0,0)"/>
<path d="" fill="#FFFFFF" transform="translate(0,0)"/>
<path d="" fill="#FFFFFF" transform="translate(0,0)"/>
<path d="" fill="#FFFFFF" transform="translate(0,0)"/>
<path d="" fill="#FFFFFF" transform="translate(0,0)"/>
<path d="" fill="#FFFFFF" transform="translate(0,0)"/>
<path d="" fill="#FFFFFF" transform="translate(0,0)"/>
<path d="" fill="#FFFFFF" transform="translate(0,0)"/>
<path d="" fill="#FFFFFF" transform="translate(0,0)"/>
<path d="" fill="#FFFFFF" transform="translate(0,0)"/>
<path d="" fill="#FFFFFF" transform="translate(0,0)"/>
<path d="" fill="#FFFFFF" transform="translate(0,0)"/>
<path d="" fill="#FFFFFF" transform="translate(0,0)"/>
<path d="" fill="#FFFFFF" transform="translate(0,0)"/>
<path d="" fill="#FFFFFF" transform="translate(0,0)"/>
<path d="" fill="#FFFFFF" transform="translate(0,0)"/>
<path d="" fill="#FFFFFF" transform="translate(0,0)"/>
<path d="" fill="#FFFFFF" transform="translate(0,0)"/>
<path d="" fill="#FFFFFF" transform="translate(0,0)"/>
<path d="" fill="#FFFFFF" transform="translate(0,0)"/>
<path d="" fill="#FFFFFF" transform="translate(0,0)"/>
<path d="" fill="#FFFFFF" transform="translate(0,0)"/>
<path d="" fill="#FFFFFF" transform="translate(0,0)"/>
<path d="" fill="#FFFFFF" transform="translate(0,0)"/>
<path d="" fill="#FFFFFF" transform="translate(0,0)"/>
<path d="" fill="#FFFFFF" transform="translate(0,0)"/>
<path d="" fill="#FFFFFF" transform="translate(0,0)"/>
<path d="" fill="#FFFFFF" transform="translate(0,0)"/>
<path d="" fill="#FFFFFF" transform="translate(0,0)"/>
<path d="" fill="#FFFFFF" transform="translate(0,0)"/>
<path d="" fill="#FFFFFF" transform="translate(0,0)"/>
<path d="" fill="#FFFFFF" transform="translate(0,0)"/>
<path d="" fill="#FFFFFF" transform="translate(0,0)"/>
<path d="" fill="#FFFFFF" transform="translate(0,0)"/>
<path d="" fill="#FFFFFF" transform="translate(0,0)"/>
<path d="" fill="#FFFFFF" transform="translate(0,0)"/>
<path d="" fill="#FFFFFF" transform="translate(0,0)"/>
<path d="" fill="#FFFFFF" transform="translate(0,0)"/>
<path d="" fill="#FFFFFF" transform="translate(0,0)"/>
<path d="" fill="#FFFFFF" transform="translate(0,0)"/>
<path d="" fill="#FFFFFF" transform="translate(0,0)"/>
<path d="" fill="#FFFFFF" transform="translate(0,0)"/>
<path d="" fill="#FFFFFF" transform="translate(0,0)"/>
<path d="" fill="#00FFFF" transform="translate(0,0)"/>
<path d="" fill="#FFFFFF" transform="translate(0,0)"/>
<path d="" fill="#FFFFFF" transform="translate(0,0)"/>
<path d="" fill="#FFFFFF" transform="translate(0,0)"/>
<path d="" fill="#FFFFFF" transform="translate(0,0)"/>
<path d="" fill="#FFFFFF" transform="translate(0,0)"/>
<path d="" fill="#FFFFFF" transform="translate(0,0)"/>
<path d="" fill="#FFFFFF" transform="translate(0,0)"/>
<path d="" fill="#FFFFFF" transform="translate(0,0)"/>
<path d="" fill="#FFFFFF" transform="translate(0,0)"/>
<path d="" fill="#FFFFFF" transform="translate(0,0)"/>
<path d="" fill="#FFFFFF" transform="translate(0,0)"/>
<path d="" fill="#FFFFFF" transform="translate(0,0)"/>
</svg>
