<?xml version="1.0" encoding="UTF-8"?>
<svg version="1.1" xmlns="http://www.w3.org/2000/svg" width="399" height="98">
<path d="M0 0 C0.94617187 0.02707031 1.89234375 0.05414062 2.8671875 0.08203125 C12.12281528 0.48501504 12.12281528 0.48501504 15.625 3.75 C17.48342601 8.23155534 17.88176484 12.07872604 17.890625 16.90625 C17.89349518 17.9042865 17.89349518 17.9042865 17.89642334 18.92248535 C17.89777655 20.32088604 17.89414084 21.71929966 17.88574219 23.11767578 C17.8750297 25.24410529 17.88566631 27.36969016 17.8984375 29.49609375 C17.89711575 30.86198101 17.89455304 32.22786775 17.890625 33.59375 C17.88836914 34.82287109 17.88611328 36.05199219 17.88378906 37.31835938 C17.61897888 40.82984233 17.0344604 43.52669691 15.625 46.75 C12.22602327 49.01598448 11.06180827 48.98742654 7.08203125 48.9453125 C6.11499268 48.94031738 5.1479541 48.93532227 4.15161133 48.93017578 C2.92595459 48.91196777 1.70029785 48.89375977 0.4375 48.875 C-3.460625 48.83375 -7.35875 48.7925 -11.375 48.75 C-11.375 34.89 -11.375 21.03 -11.375 6.75 C-12.365 6.42 -13.355 6.09 -14.375 5.75 C-14.045 4.1 -13.715 2.45 -13.375 0.75 C-8.91515989 -0.73661337 -4.65772609 -0.20770941 0 0 Z M-0.375 8.75 C-0.375 19.31 -0.375 29.87 -0.375 40.75 C1.605 40.75 3.585 40.75 5.625 40.75 C5.625 30.19 5.625 19.63 5.625 8.75 C3.645 8.75 1.665 8.75 -0.375 8.75 Z " fill="#050B2E" transform="translate(26.375,18.25)"/>
<path d="M0 0 C1.50433594 -0.0309375 1.50433594 -0.0309375 3.0390625 -0.0625 C12.36577234 -0.11197857 12.36577234 -0.11197857 16.25 3.25 C17.86654921 6.48309842 17.45567585 10.02795357 17.48828125 13.58203125 C17.496353 14.41079269 17.50442474 15.23955414 17.51274109 16.09342957 C17.52658221 17.84945585 17.53730424 19.60550904 17.54516602 21.36157227 C17.56236651 24.04170009 17.60624926 26.72059028 17.65039062 29.40039062 C17.66051879 31.10676176 17.66903451 32.81314339 17.67578125 34.51953125 C17.69328934 35.31865433 17.71079742 36.1177774 17.72883606 36.94111633 C17.71403866 40.75459235 17.46410003 42.86121374 15.58959961 46.26513672 C12.64519281 48.76310471 11.21402372 48.83581693 7.390625 48.73828125 C6.27558594 48.72216797 5.16054687 48.70605469 4.01171875 48.68945312 C2.85285156 48.64755859 1.69398438 48.60566406 0.5 48.5625 C-1.26150391 48.52866211 -1.26150391 48.52866211 -3.05859375 48.49414062 C-5.95701637 48.4352296 -8.85286427 48.35301631 -11.75 48.25 C-11.77526945 41.5747966 -11.79283268 34.89960543 -11.80493164 28.22436523 C-11.80997325 25.95157409 -11.81680637 23.6787862 -11.82543945 21.40600586 C-11.83751261 18.14696449 -11.84322987 14.88796583 -11.84765625 11.62890625 C-11.85281754 10.60599991 -11.85797882 9.58309357 -11.86329651 8.52919006 C-11.86337204 7.58829025 -11.86344757 6.64739044 -11.86352539 5.67797852 C-11.865746 4.84524918 -11.86796661 4.01251984 -11.87025452 3.15455627 C-11.55173397 -1.89008015 -3.78720486 0.01917572 0 0 Z M0.25 8.25 C0.25 18.81 0.25 29.37 0.25 40.25 C2.23 40.25 4.21 40.25 6.25 40.25 C6.25 29.69 6.25 19.13 6.25 8.25 C4.27 8.25 2.29 8.25 0.25 8.25 Z " fill="#060B2F" transform="translate(232.75,18.75)"/>
<path d="M0 0 C2.97 0 5.94 0 9 0 C9 15.84 9 31.68 9 48 C5.37 48 1.74 48 -2 48 C-2.33 44.37 -2.66 40.74 -3 37 C-4.7325 37.0825 -6.465 37.165 -8.25 37.25 C-13.62754065 37.23619373 -13.62754065 37.23619373 -16.5625 35.375 C-20.26925999 29.25078785 -20.18481235 23.84899405 -19.75 16.9375 C-19.71003906 16.05255859 -19.67007813 15.16761719 -19.62890625 14.25585938 C-19.33442118 8.95114867 -19.04028564 4.36673134 -15.4375 0.1875 C-10.51120257 -2.21249106 -5.15964666 -1.28991166 0 0 Z M-8 7 C-8 14.26 -8 21.52 -8 29 C-6.02 29 -4.04 29 -2 29 C-2 21.74 -2 14.48 -2 7 C-3.98 7 -5.96 7 -8 7 Z " fill="#080C2F" transform="translate(110,31)"/>
<path d="M0 0 C0.7734375 -0.00257812 1.546875 -0.00515625 2.34375 -0.0078125 C4.5 0.125 4.5 0.125 7.5 1.125 C10.47 1.125 13.44 1.125 16.5 1.125 C16.5 13.005 16.5 24.885 16.5 37.125 C13.2 37.125 9.9 37.125 6.5 37.125 C5.51 37.62 5.51 37.62 4.5 38.125 C2.29296875 38.3984375 2.29296875 38.3984375 -0.3125 38.5 C-1.16457031 38.54898438 -2.01664062 38.59796875 -2.89453125 38.6484375 C-5.73450258 38.07788854 -7.57038721 37.28166284 -9.53393555 35.10449219 C-11.90097797 30.25435826 -11.11698909 24.32435036 -11 19.0625 C-11.00257813 17.78310547 -11.00515625 16.50371094 -11.0078125 15.18554688 C-10.89602222 4.53752232 -10.89602222 4.53752232 -7.5 1.125 C-4.68772378 0.18757459 -2.91253156 -0.00970844 0 0 Z M0.5 8.125 C0.5 15.385 0.5 22.645 0.5 30.125 C2.15 30.125 3.8 30.125 5.5 30.125 C5.5 22.865 5.5 15.605 5.5 8.125 C3.85 8.125 2.2 8.125 0.5 8.125 Z " fill="#060B2F" transform="translate(271.5,29.875)"/>
<path d="M0 0 C0.70318359 -0.03287109 1.40636719 -0.06574219 2.13085938 -0.09960938 C5.86955797 -0.13815266 7.91654054 0.34083052 11.046875 2.4140625 C13.76984169 6.49851253 13.63565491 9.4659798 13.375 14.25 C13.35244141 15.03826172 13.32988281 15.82652344 13.30664062 16.63867188 C13.24804161 18.57243929 13.15836827 20.50522167 13.0625 22.4375 C7.7825 22.4375 2.5025 22.4375 -2.9375 22.4375 C-2.9375 25.0775 -2.9375 27.7175 -2.9375 30.4375 C-0.9575 30.4375 1.0225 30.4375 3.0625 30.4375 C3.0625 28.7875 3.0625 27.1375 3.0625 25.4375 C6.3625 25.4375 9.6625 25.4375 13.0625 25.4375 C13.66957457 32.60097992 13.66957457 32.60097992 11.078125 36.171875 C7.08375111 39.17282948 4.35818069 39.15429415 -0.5 39 C-1.25474609 39.01095703 -2.00949219 39.02191406 -2.78710938 39.03320312 C-6.39928821 38.98546508 -8.51211175 38.76715904 -11.40234375 36.52734375 C-15.15935131 31.41284236 -14.12171647 25.70269477 -14.125 19.5625 C-14.13724609 18.36496094 -14.14949219 17.16742188 -14.16210938 15.93359375 C-14.16404297 14.78246094 -14.16597656 13.63132812 -14.16796875 12.4453125 C-14.17207764 11.38973145 -14.17618652 10.33415039 -14.18041992 9.24658203 C-13.93628005 6.42339276 -13.45182418 4.80622397 -11.9375 2.4375 C-8.40304028 -0.21546377 -4.24693376 0.03484267 0 0 Z M-2.9375 8.4375 C-2.9375 10.7475 -2.9375 13.0575 -2.9375 15.4375 C-0.9575 15.4375 1.0225 15.4375 3.0625 15.4375 C3.0625 13.1275 3.0625 10.8175 3.0625 8.4375 C1.0825 8.4375 -0.8975 8.4375 -2.9375 8.4375 Z " fill="#070C2E" transform="translate(179.9375,29.5625)"/>
<path d="M0 0 C3.3 0 6.6 0 10 0 C9.67 11.88 9.34 23.76 9 36 C5.7 36 2.4 36 -1 36 C-1.99 36.495 -1.99 36.495 -3 37 C-5.20703125 37.2734375 -5.20703125 37.2734375 -7.8125 37.375 C-8.66457031 37.42398438 -9.51664062 37.47296875 -10.39453125 37.5234375 C-13.23450258 36.95288854 -15.07038721 36.15666284 -17.03393555 33.97949219 C-19.40097797 29.12935826 -18.61698909 23.19935036 -18.5 17.9375 C-18.50257813 16.65810547 -18.50515625 15.37871094 -18.5078125 14.06054688 C-18.39602222 3.41252232 -18.39602222 3.41252232 -15 0 C-9.85630944 -1.71456352 -5.16239286 -1.29059821 0 0 Z M-7 7 C-8.22784809 8.00559794 -8.22784809 8.00559794 -8.11352539 10.04125977 C-8.10828857 10.91580811 -8.10305176 11.79035645 -8.09765625 12.69140625 C-8.09443359 13.63564453 -8.09121094 14.57988281 -8.08789062 15.55273438 C-8.07951172 16.54595703 -8.07113281 17.53917969 -8.0625 18.5625 C-8.05798828 19.55958984 -8.05347656 20.55667969 -8.04882812 21.58398438 C-8.03700007 24.05604849 -8.02051849 26.52799518 -8 29 C-6.02 29 -4.04 29 -2 29 C-2 21.74 -2 14.48 -2 7 C-3.65 7 -5.3 7 -7 7 Z " fill="#080C2F" transform="translate(342,31)"/>
<path d="M0 0 C0.76441406 0.00644531 1.52882813 0.01289063 2.31640625 0.01953125 C4.4375 0.1875 4.4375 0.1875 7.4375 1.1875 C8.99868428 1.25490865 10.5625252 1.27264456 12.125 1.25 C12.93324219 1.24097656 13.74148437 1.23195313 14.57421875 1.22265625 C15.18910156 1.21105469 15.80398437 1.19945313 16.4375 1.1875 C16.63740833 5.12447015 16.82009453 9.06206912 17 13 C17.05607422 14.10021484 17.11214844 15.20042969 17.16992188 16.33398438 C17.48192321 23.38521451 17.2821925 30.17893042 16.4375 37.1875 C15.68968262 37.1779126 14.94186523 37.1683252 14.17138672 37.15844727 C12.87998779 37.14189087 12.87998779 37.14189087 11.5625 37.125 C10.65757813 37.11339844 9.75265625 37.10179687 8.8203125 37.08984375 C6.4206415 37.02500743 6.4206415 37.02500743 4.4375 38.1875 C-4.29430873 39.11544483 -4.29430873 39.11544483 -8.125 36.3125 C-11.67648325 31.06248129 -10.74669841 25.4864691 -10.75 19.3125 C-10.76224609 18.11496094 -10.77449219 16.91742188 -10.78710938 15.68359375 C-10.78904297 14.53246094 -10.79097656 13.38132812 -10.79296875 12.1953125 C-10.79707764 11.13973145 -10.80118652 10.08415039 -10.80541992 8.99658203 C-10.56103913 6.17060675 -10.09148385 4.55186256 -8.5625 2.1875 C-5.69805535 0.25962536 -3.41139689 -0.0634947 0 0 Z M0.4375 8.1875 C0.4375 15.4475 0.4375 22.7075 0.4375 30.1875 C2.4175 30.1875 4.3975 30.1875 6.4375 30.1875 C6.46637814 26.70835059 6.48425687 23.22923169 6.5 19.75 C6.50837891 18.75677734 6.51675781 17.76355469 6.52539062 16.74023438 C6.52861328 15.79599609 6.53183594 14.85175781 6.53515625 13.87890625 C6.54039307 13.00435791 6.54562988 12.12980957 6.55102539 11.22875977 C6.66534809 9.19309794 6.66534809 9.19309794 5.4375 8.1875 C3.7875 8.1875 2.1375 8.1875 0.4375 8.1875 Z " fill="#070C2E" transform="translate(64.5625,29.8125)"/>
<path d="M0 0 C3.63 0 7.26 0 11 0 C11 9.57 11 19.14 11 29 C12.65 29 14.3 29 16 29 C16 19.43 16 9.86 16 0 C19.63 0 23.26 0 27 0 C27 11.88 27 23.76 27 36 C5.95314506 37.75390458 5.95314506 37.75390458 2.38964844 34.93530273 C-0.65107644 31.20025623 -0.58321777 29.27753182 -0.48828125 24.51171875 C-0.48120651 23.80852005 -0.47413177 23.10532135 -0.46684265 22.3808136 C-0.43899212 20.14859773 -0.3762832 17.91894923 -0.3125 15.6875 C-0.28740451 14.16865619 -0.26459352 12.6497728 -0.24414062 11.13085938 C-0.18920007 7.41974752 -0.10299739 3.71012459 0 0 Z " fill="#070C2E" transform="translate(129,31)"/>
<path d="M0 0 C1.51400391 0.01740234 1.51400391 0.01740234 3.05859375 0.03515625 C4.07050781 0.04417969 5.08242188 0.05320312 6.125 0.0625 C7.29869141 0.07990234 7.29869141 0.07990234 8.49609375 0.09765625 C8.49609375 2.73765625 8.49609375 5.37765625 8.49609375 8.09765625 C10.47609375 8.09765625 12.45609375 8.09765625 14.49609375 8.09765625 C14.49609375 10.73765625 14.49609375 13.37765625 14.49609375 16.09765625 C12.51609375 16.09765625 10.53609375 16.09765625 8.49609375 16.09765625 C8.82609375 23.02765625 9.15609375 29.95765625 9.49609375 37.09765625 C11.14609375 37.42765625 12.79609375 37.75765625 14.49609375 38.09765625 C14.49609375 40.40765625 14.49609375 42.71765625 14.49609375 45.09765625 C12.58068237 45.20607576 10.66349602 45.28343704 8.74609375 45.34765625 C7.67875 45.3940625 6.61140625 45.44046875 5.51171875 45.48828125 C1.82175969 45.01030728 0.76982649 43.96638447 -1.50390625 41.09765625 C-3.13589232 37.83368411 -2.76828035 34.21691005 -2.85546875 30.625 C-2.87862152 29.78675186 -2.90177429 28.94850372 -2.92562866 28.08485413 C-2.97327175 26.31208336 -3.0185054 24.53924645 -3.06152344 22.76635742 C-3.12872368 20.04255612 -3.20643556 17.31919303 -3.28515625 14.59570312 C-3.33006103 12.87631852 -3.3743528 11.15691778 -3.41796875 9.4375 C-3.44186676 8.61773178 -3.46576477 7.79796356 -3.49038696 6.95335388 C-3.53402941 5.00193743 -3.52446131 3.04945243 -3.50390625 1.09765625 C-2.50390625 0.09765625 -2.50390625 0.09765625 0 0 Z " fill="#080D2F" transform="translate(300.50390625,22.90234375)"/>
<path d="M0 0 C2.38443668 2.38443668 2.26183505 2.92459782 2.31884766 6.17431641 C2.33871735 7.03505768 2.35858704 7.89579895 2.37905884 8.78262329 C2.39061005 9.71287323 2.40216125 10.64312317 2.4140625 11.6015625 C2.43342865 12.55316254 2.4527948 13.50476257 2.4727478 14.48519897 C2.53264132 17.53170747 2.57896795 20.57825354 2.625 23.625 C2.66317079 25.6875167 2.70222198 27.7500173 2.7421875 29.8125 C2.83835086 34.87486966 2.92234563 39.93731395 3 45 C8.61 45.33 14.22 45.66 20 46 C20 46.33 20 46.66 20 47 C13.4 47 6.8 47 0 47 C0 31.49 0 15.98 0 0 Z " fill="#03051E" transform="translate(221,20)"/>
<path d="M0 0 C4.29 0 8.58 0 13 0 C13 11.88 13 23.76 13 36 C12.67 36 12.34 36 12 36 C12 24.45 12 12.9 12 1 C9.69 1 7.38 1 5 1 C5 2.65 5 4.3 5 6 C4.34 6 3.68 6 3 6 C3 13.26 3 20.52 3 28 C2.67 28 2.34 28 2 28 C2 21.07 2 14.14 2 7 C0.35 7 -1.3 7 -3 7 C-3 6.67 -3 6.34 -3 6 C-1.35 6 0.3 6 2 6 C1.49396008 3.83125748 1.00016187 2.00032373 0 0 Z " fill="#131632" transform="translate(275,31)"/>
<path d="M0 0 C0 0.66 0 1.32 0 2 C-0.99 2 -1.98 2 -3 2 C-3 17.51 -3 33.02 -3 49 C-3.33 49 -3.66 49 -4 49 C-4 35.14 -4 21.28 -4 7 C-4.99 6.67 -5.98 6.34 -7 6 C-6.67 4.35 -6.34 2.7 -6 1 C-3 0 -3 0 0 0 Z " fill="#43445E" transform="translate(19,18)"/>
<path d="M0 0 C5.94 0.33 11.88 0.66 18 1 C18 1.33 18 1.66 18 2 C16.31970703 2.03867187 16.31970703 2.03867187 14.60546875 2.078125 C13.13277354 2.13440635 11.6601188 2.19175368 10.1875 2.25 C9.08051758 2.27126953 9.08051758 2.27126953 7.95117188 2.29296875 C3.50622421 2.43207657 3.50622421 2.43207657 0.11328125 5.046875 C-0.25410156 5.69140625 -0.62148438 6.3359375 -1 7 C-1.66 7 -2.32 7 -3 7 C-3 5.35 -3 3.7 -3 2 C-2.01 2 -1.02 2 0 2 C0 1.34 0 0.68 0 0 Z " fill="#161A39" transform="translate(19,18)"/>
<path d="" fill="#FFFFFF" transform="translate(0,0)"/>
<path d="" fill="#FFFFFF" transform="translate(0,0)"/>
<path d="" fill="#FFFFFF" transform="translate(0,0)"/>
<path d="" fill="#FFFFFF" transform="translate(0,0)"/>
<path d="" fill="#FFFFFF" transform="translate(0,0)"/>
<path d="" fill="#FFFFFF" transform="translate(0,0)"/>
<path d="" fill="#FFFFFF" transform="translate(0,0)"/>
<path d="" fill="#FFFFFF" transform="translate(0,0)"/>
<path d="" fill="#FFFFFF" transform="translate(0,0)"/>
<path d="" fill="#FFFFFF" transform="translate(0,0)"/>
<path d="" fill="#FFFFFF" transform="translate(0,0)"/>
<path d="" fill="#FFFFFF" transform="translate(0,0)"/>
<path d="" fill="#FFFFFF" transform="translate(0,0)"/>
<path d="" fill="#FFFFFF" transform="translate(0,0)"/>
<path d="" fill="#FFFFFF" transform="translate(0,0)"/>
<path d="" fill="#FFFFFF" transform="translate(0,0)"/>
<path d="" fill="#FFFFFF" transform="translate(0,0)"/>
<path d="" fill="#FFFFFF" transform="translate(0,0)"/>
<path d="" fill="#FFFFFF" transform="translate(0,0)"/>
<path d="" fill="#FFFFFF" transform="translate(0,0)"/>
<path d="" fill="#FFFFFF" transform="translate(0,0)"/>
<path d="" fill="#FFFFFF" transform="translate(0,0)"/>
<path d="" fill="#FFFFFF" transform="translate(0,0)"/>
<path d="" fill="#FFFFFF" transform="translate(0,0)"/>
<path d="" fill="#FFFFFF" transform="translate(0,0)"/>
<path d="" fill="#FFFFFF" transform="translate(0,0)"/>
<path d="" fill="#FFFFFF" transform="translate(0,0)"/>
<path d="" fill="#FFFFFF" transform="translate(0,0)"/>
<path d="" fill="#FFFFFF" transform="translate(0,0)"/>
<path d="" fill="#FFFFFF" transform="translate(0,0)"/>
<path d="" fill="#FFFFFF" transform="translate(0,0)"/>
<path d="" fill="#FFFFFF" transform="translate(0,0)"/>
<path d="" fill="#FFFFFF" transform="translate(0,0)"/>
<path d="" fill="#FFFFFF" transform="translate(0,0)"/>
<path d="" fill="#FFFFFF" transform="translate(0,0)"/>
<path d="" fill="#FFFFFF" transform="translate(0,0)"/>
<path d="" fill="#FFFFFF" transform="translate(0,0)"/>
<path d="" fill="#FFFFFF" transform="translate(0,0)"/>
<path d="" fill="#FFFFFF" transform="translate(0,0)"/>
<path d="" fill="#FFFFFF" transform="translate(0,0)"/>
<path d="" fill="#FFFFFF" transform="translate(0,0)"/>
<path d="" fill="#FFFFFF" transform="translate(0,0)"/>
<path d="" fill="#FFFFFF" transform="translate(0,0)"/>
<path d="" fill="#AAD5D5" transform="translate(0,0)"/>
<path d="" fill="#FFFFFF" transform="translate(0,0)"/>
<path d="" fill="#FFFFFF" transform="translate(0,0)"/>
<path d="" fill="#00FFFF" transform="translate(0,0)"/>
<path d="" fill="#FFFFFF" transform="translate(0,0)"/>
<path d="" fill="#FFFFFF" transform="translate(0,0)"/>
<path d="" fill="#FFFFFF" transform="translate(0,0)"/>
<path d="" fill="#FFFFFF" transform="translate(0,0)"/>
<path d="" fill="#FFFFFF" transform="translate(0,0)"/>
<path d="" fill="#FFFFFF" transform="translate(0,0)"/>
<path d="" fill="#FFFFFF" transform="translate(0,0)"/>
<path d="" fill="#FFFFFF" transform="translate(0,0)"/>
<path d="" fill="#FFFFFF" transform="translate(0,0)"/>
<path d="" fill="#FFFFFF" transform="translate(0,0)"/>
<path d="" fill="#FFFFFF" transform="translate(0,0)"/>
<path d="" fill="#FFFFFF" transform="translate(0,0)"/>
<path d="" fill="#FFFFFF" transform="translate(0,0)"/>
<path d="" fill="#FFFFFF" transform="translate(0,0)"/>
<path d="" fill="#FFFFFF" transform="translate(0,0)"/>
</svg>
