<?xml version="1.0" encoding="UTF-8"?>
<svg version="1.1" xmlns="http://www.w3.org/2000/svg" width="399" height="98">
<path d="M0 0 C131.67 0 263.34 0 399 0 C399 32.34 399 64.68 399 98 C267.33 98 135.66 98 0 98 C0 65.66 0 33.32 0 0 Z " fill="#FDFDFD" transform="translate(0,0)"/>
<path d="M0 0 C21 0 21 0 26 3 C28.51498325 6.77247487 28.34093701 9.83501084 28.37109375 14.2109375 C28.38463646 15.41866318 28.38463646 15.41866318 28.39845276 16.65078735 C28.41295481 18.35374229 28.42184189 20.05675295 28.42553711 21.75976562 C28.43742696 24.35903342 28.48660245 26.95592128 28.53710938 29.5546875 C28.5465748 31.21092594 28.55380926 32.86717893 28.55859375 34.5234375 C28.57812607 35.29754974 28.59765839 36.07166199 28.61778259 36.86923218 C28.56691576 42.98479965 27.78980099 43.21019901 23 48 C15.41 48 7.82 48 0 48 C0 32.16 0 16.32 0 0 Z " fill="#0B1035" transform="translate(15,19)"/>
<path d="M0 0 C7.59 0 15.18 0 23 0 C28.57155395 5.57155395 28.57155395 5.57155395 28.61778259 10.95265198 C28.59825027 11.70175339 28.57871796 12.4508548 28.55859375 13.22265625 C28.55509666 14.39640053 28.55509666 14.39640053 28.55152893 15.59385681 C28.54181672 17.24212604 28.52008755 18.89036315 28.48706055 20.53833008 C28.43758917 23.05795825 28.42557391 25.5756327 28.41992188 28.09570312 C28.40583671 29.70054156 28.38963259 31.30536309 28.37109375 32.91015625 C28.36573105 33.66128189 28.36036835 34.41240753 28.35484314 35.18629456 C28.20158496 41.93790878 28.20158496 41.93790878 26 45 C18.76759429 49.8216038 8.69226987 47 0 47 C0 31.49 0 15.98 0 0 Z " fill="#070C32" transform="translate(222,20)"/>
<path d="M0 0 C0.95003906 0.03609375 1.90007812 0.0721875 2.87890625 0.109375 C3.72324219 0.15578125 4.56757812 0.2021875 5.4375 0.25 C6.4275 0.25 7.4175 0.25 8.4375 0.25 C11.0775 0.25 13.7175 0.25 16.4375 0.25 C16.4375 15.76 16.4375 31.27 16.4375 47.25 C13.4675 47.25 10.4975 47.25 7.4375 47.25 C7.4375 43.29 7.4375 39.33 7.4375 35.25 C6.1175 35.91 4.7975 36.57 3.4375 37.25 C-0.38706282 37.82517839 -3.57034602 37.78423676 -7 35.9375 C-11.23891447 31.35947238 -9.82978034 23.63377814 -9.875 17.8125 C-9.90400391 16.57177734 -9.93300781 15.33105469 -9.96289062 14.05273438 C-9.97126953 12.86099609 -9.97964844 11.66925781 -9.98828125 10.44140625 C-10.00286377 9.35029541 -10.01744629 8.25918457 -10.0324707 7.13500977 C-9.06963453 1.22444609 -5.57033437 -0.2728327 0 0 Z " fill="#0D1236" transform="translate(101.5625,30.75)"/>
<path d="M0 0 C0.95003906 0.04511719 1.90007812 0.09023438 2.87890625 0.13671875 C3.72324219 0.19472656 4.56757813 0.25273437 5.4375 0.3125 C6.4275 0.3125 7.4175 0.3125 8.4375 0.3125 C11.4075 0.3125 14.3775 0.3125 17.4375 0.3125 C17.4375 12.1925 17.4375 24.0725 17.4375 36.3125 C13.77083333 36.3125 10.10416667 36.3125 6.4375 36.3125 C5.4475 36.8075 5.4475 36.8075 4.4375 37.3125 C-2.62437625 37.89134232 -2.62437625 37.89134232 -6.5 35.5 C-10.99323106 30.73445191 -9.82290055 24.1060753 -9.875 17.9375 C-9.90400391 16.80054687 -9.93300781 15.66359375 -9.96289062 14.4921875 C-10.02600812 6.21893995 -10.02600812 6.21893995 -7.890625 2.04296875 C-5.00933566 -0.09866074 -3.55332917 -0.21755077 0 0 Z " fill="#101439" transform="translate(333.5625,30.6875)"/>
<path d="M0 0 C3.7125 0.103125 7.425 0.20625 11.25 0.3125 C11.25 12.1925 11.25 24.0725 11.25 36.3125 C8.61 36.3125 5.97 36.3125 3.25 36.3125 C3.25 35.6525 3.25 34.9925 3.25 34.3125 C2.59 34.8075 1.93 35.3025 1.25 35.8125 C-2.55767661 37.71633831 -5.56542593 38.09023902 -9.75 37.3125 C-13.19312714 35.1880173 -14.46617547 34.16397359 -15.75 30.3125 C-16.03531121 26.19221263 -16.0276262 22.06655799 -16.0625 17.9375 C-16.09150391 16.80054687 -16.12050781 15.66359375 -16.15039062 14.4921875 C-16.18495649 9.9614001 -16.131476 6.28300276 -14.46484375 2.04296875 C-9.93924007 -0.84169662 -5.22650327 -0.20432981 0 0 Z " fill="#0F1338" transform="translate(276.75,30.6875)"/>
<path d="M0 0 C1.32499512 0.01498535 1.32499512 0.01498535 2.67675781 0.03027344 C4.34496582 0.08489746 4.34496582 0.08489746 6.046875 0.140625 C9.594375 0.223125 13.141875 0.305625 16.796875 0.390625 C16.796875 12.270625 16.796875 24.150625 16.796875 36.390625 C13.13020833 36.390625 9.46354167 36.390625 5.796875 36.390625 C4.806875 36.885625 4.806875 36.885625 3.796875 37.390625 C-3.08142692 38.06717929 -3.08142692 38.06717929 -6.9296875 35.74609375 C-11.11144984 31.20759721 -9.87278882 24.05994134 -9.765625 18.328125 C-9.77658203 17.04873047 -9.78753906 15.76933594 -9.79882812 14.45117188 C-9.72531363 5.11483093 -9.72531363 5.11483093 -7.49291992 2.01879883 C-4.73687177 0.05909255 -3.3518121 -0.07794912 0 0 Z " fill="#0A0F34" transform="translate(64.203125,30.609375)"/>
<path d="M0 0 C0.80695313 -0.02384766 1.61390625 -0.04769531 2.4453125 -0.07226562 C6.41073104 -0.06245023 8.37230357 0.06573411 11.546875 2.578125 C13.46056533 6.50839225 13.44807772 9.57907979 13.25 13.875 C13.1675 16.411875 13.085 18.94875 13 21.5625 C7.72 21.5625 2.44 21.5625 -3 21.5625 C-3 24.5325 -3 27.5025 -3 30.5625 C-1.02 30.5625 0.96 30.5625 3 30.5625 C3 28.5825 3 26.6025 3 24.5625 C6.3 24.5625 9.6 24.5625 13 24.5625 C12.6332918 32.87455263 12.6332918 32.87455263 9.91796875 35.82421875 C6.24024727 38.01509701 3.76242664 38.12926243 -0.5 38.125 C-1.7890625 38.14691406 -3.078125 38.16882813 -4.40625 38.19140625 C-8 37.5625 -8 37.5625 -10.93359375 35.90625 C-14.31585285 30.43325607 -13.68016748 24.79361995 -13.5625 18.5 C-13.57345703 17.22060547 -13.58441406 15.94121094 -13.59570312 14.62304688 C-13.52195665 5.25724478 -13.52195665 5.25724478 -11.22631836 2.20166016 C-7.61730294 -0.45553137 -4.34471906 -0.05899379 0 0 Z " fill="#0F1338" transform="translate(180,30.4375)"/>
<path d="M0 0 C3.3 0 6.6 0 10 0 C10.33 9.57 10.66 19.14 11 29 C12.65 29 14.3 29 16 29 C16.33 19.43 16.66 9.86 17 0 C20.3 0 23.6 0 27 0 C27 11.88 27 23.76 27 36 C23.37 36 19.74 36 16 36 C15.01 36.495 15.01 36.495 14 37 C6.93812375 37.57884232 6.93812375 37.57884232 3.0625 35.1875 C-0.46881439 31.44216655 -0.11850452 28.08557232 -0.09765625 23.14453125 C-0.0962413 22.48289474 -0.09482635 21.82125824 -0.09336853 21.13957214 C-0.08777996 19.03050172 -0.07522965 16.92153823 -0.0625 14.8125 C-0.05748352 13.38086091 -0.05292087 11.94922015 -0.04882812 10.51757812 C-0.0378143 7.01168412 -0.02055755 3.5058525 0 0 Z " fill="#0E1337" transform="translate(129,31)"/>
<path d="M0 0 C2.97 0 5.94 0 9 0 C9 2.31 9 4.62 9 7 C10.98 7 12.96 7 15 7 C15 9.31 15 11.62 15 14 C13.02 14 11.04 14 9 14 C9.33 21.26 9.66 28.52 10 36 C11.98 36.33 13.96 36.66 16 37 C16 39.31 16 41.62 16 44 C14.27305325 44.13609913 12.54295278 44.23249228 10.8125 44.3125 C9.84957031 44.37050781 8.88664062 44.42851563 7.89453125 44.48828125 C3.77663306 43.79362906 2.54262835 42.28237891 0 39 C-0.67152184 35.98025692 -0.58438771 33.06133239 -0.48828125 29.98046875 C-0.48120651 29.12189774 -0.47413177 28.26332672 -0.46684265 27.3787384 C-0.43894402 24.64742397 -0.37621691 21.91819042 -0.3125 19.1875 C-0.28741114 17.3314099 -0.26459899 15.47528754 -0.24414062 13.61914062 C-0.18913253 9.07863028 -0.10289364 4.53966743 0 0 Z " fill="#0A0F34" transform="translate(299,24)"/>
<path d="M0 0 C2.31 0 4.62 0 7 0 C8.67673649 1.67673649 8.12787817 3.72855076 8.13894653 5.96655273 C8.1369223 6.65821533 8.13489807 7.34987793 8.1328125 8.0625 C8.13376923 8.76898682 8.13472595 9.47547363 8.13571167 10.20336914 C8.13639333 11.69970793 8.13454005 13.19604967 8.13037109 14.69238281 C8.12502257 16.99030157 8.13031651 19.28802486 8.13671875 21.5859375 C8.13605797 23.03645877 8.1347768 24.48697991 8.1328125 25.9375 C8.13483673 26.6291626 8.13686096 27.3208252 8.13894653 28.03344727 C8.11495224 32.88504776 8.11495224 32.88504776 7 34 C4.69 34 2.38 34 0 34 C0 22.78 0 11.56 0 0 Z " fill="#E9E9ED" transform="translate(232,26)"/>
<path d="M0 0 C2.31 0 4.62 0 7 0 C8.67673649 1.67673649 8.12787817 3.72855076 8.13894653 5.96655273 C8.1369223 6.65821533 8.13489807 7.34987793 8.1328125 8.0625 C8.13376923 8.76898682 8.13472595 9.47547363 8.13571167 10.20336914 C8.13639333 11.69970793 8.13454005 13.19604967 8.13037109 14.69238281 C8.12502257 16.99030157 8.13031651 19.28802486 8.13671875 21.5859375 C8.13605797 23.03645877 8.1347768 24.48697991 8.1328125 25.9375 C8.13483673 26.6291626 8.13686096 27.3208252 8.13894653 28.03344727 C8.11495224 32.88504776 8.11495224 32.88504776 7 34 C4.69 34 2.38 34 0 34 C0 22.78 0 11.56 0 0 Z " fill="#E9E9ED" transform="translate(25,26)"/>
<path d="M0 0 C2.31 0 4.62 0 7 0 C7.02887512 3.64581687 7.04675585 7.29160463 7.0625 10.9375 C7.07087891 11.97841797 7.07925781 13.01933594 7.08789062 14.09179688 C7.09111328 15.08115234 7.09433594 16.07050781 7.09765625 17.08984375 C7.10289307 18.00628662 7.10812988 18.92272949 7.11352539 19.86694336 C7 22 7 22 6 23 C4.02 23 2.04 23 0 23 C0 15.41 0 7.82 0 0 Z " fill="#F0F0F3" transform="translate(334,38)"/>
<path d="M0 0 C2.31 0 4.62 0 7 0 C7 7.59 7 15.18 7 23 C5.02 23 3.04 23 1 23 C0 22 0 22 -0.11352539 19.86694336 C-0.10828857 18.95050049 -0.10305176 18.03405762 -0.09765625 17.08984375 C-0.09443359 16.10048828 -0.09121094 15.11113281 -0.08789062 14.09179688 C-0.07951172 13.05087891 -0.07113281 12.00996094 -0.0625 10.9375 C-0.05798828 9.89271484 -0.05347656 8.84792969 -0.04882812 7.77148438 C-0.03699913 5.1809334 -0.02051689 2.59049441 0 0 Z " fill="#EEEEF1" transform="translate(64,38)"/>
<path d="M0 0 C2.31 0 4.62 0 7 0 C7.02887512 3.64581687 7.04675585 7.29160463 7.0625 10.9375 C7.07087891 11.97841797 7.07925781 13.01933594 7.08789062 14.09179688 C7.09111328 15.08115234 7.09433594 16.07050781 7.09765625 17.08984375 C7.10289307 18.00628662 7.10812988 18.92272949 7.11352539 19.86694336 C7 22 7 22 6 23 C3.5 23.125 3.5 23.125 1 23 C0 22 0 22 -0.11352539 19.86694336 C-0.10828857 18.95050049 -0.10305176 18.03405762 -0.09765625 17.08984375 C-0.09443359 16.10048828 -0.09121094 15.11113281 -0.08789062 14.09179688 C-0.07951172 13.05087891 -0.07113281 12.00996094 -0.0625 10.9375 C-0.05798828 9.89271484 -0.05347656 8.84792969 -0.04882812 7.77148438 C-0.03699913 5.1809334 -0.02051689 2.59049441 0 0 Z " fill="#F5F5F7" transform="translate(271,38)"/>
<path d="M0 0 C1.98 0 3.96 0 6 0 C6 7.59 6 15.18 6 23 C4.02 23 2.04 23 0 23 C0 15.41 0 7.82 0 0 Z " fill="#FBFBFB" transform="translate(102,38)"/>
<path d="M0 0 C1.98 0 3.96 0 6 0 C6 2.64 6 5.28 6 8 C4.02 8 2.04 8 0 8 C0 5.36 0 2.72 0 0 Z " fill="#F5F6F7" transform="translate(177,37)"/>
</svg>
